<svg xmlns="http://www.w3.org/2000/svg" width="256" height="256" viewBox="0 0 100 100"><path d="M6.68 78.04L6.68 78.04Q-1.40 78.04-5.72 73.04Q-10.04 68.04-10.04 58.36L-10.04 58.36Q-10.04 53.48-8.96 48.40Q-7.88 43.32-5.68 38.60Q-3.48 33.88-0.24 30.12Q3.00 26.36 7.32 24.16Q11.64 21.96 17.08 21.96L17.08 21.96Q21.00 21.96 23.76 23.44Q26.52 24.92 27.96 27.56Q29.40 30.20 29.40 33.48L29.40 33.48Q29.40 36.84 28.04 39.48Q26.68 42.12 24.44 43.60Q22.20 45.08 19.72 45.08L19.72 45.08Q17.00 45.08 15.44 43.88Q13.88 42.68 13.88 40.76L13.88 40.76Q13.88 39.80 14.04 39.40L14.04 39.40Q14.12 39.40 14.20 39.44Q14.28 39.48 14.36 39.48L14.36 39.48Q17.00 39.32 18.44 38.08Q19.88 36.84 20.40 35.28Q20.92 33.72 20.92 32.84L20.92 32.84Q20.92 30.44 19.40 28.96Q17.88 27.48 15.16 27.48L15.16 27.48Q11.96 27.48 9.44 29.48Q6.92 31.48 5.12 34.84Q3.32 38.20 2.12 42.24Q0.92 46.28 0.32 50.36Q-0.28 54.44-0.28 57.80L-0.28 57.80Q-0.28 61.40 0.48 64.32Q1.24 67.24 3.16 68.92Q5.08 70.60 8.60 70.60L8.60 70.60Q11.24 70.60 13.28 69.48Q15.32 68.36 16.80 66.56Q18.28 64.76 19.20 62.68Q20.12 60.60 20.44 58.76L20.44 58.76Q22.20 59 23.36 60.72Q24.52 62.44 24.52 64.68L24.52 64.68Q24.52 66.76 23.32 69.08Q22.12 71.40 19.80 73.48Q17.48 75.56 14.16 76.80Q10.84 78.04 6.68 78.04ZM47.00 78.04L47.00 78.04Q38.92 78.04 34.60 73.04Q30.28 68.04 30.28 58.36L30.28 58.36Q30.28 53.48 31.36 48.40Q32.44 43.32 34.64 38.60Q36.84 33.88 40.08 30.12Q43.32 26.36 47.64 24.16Q51.96 21.96 57.40 21.96L57.40 21.96Q61.32 21.96 64.08 23.44Q66.84 24.92 68.28 27.56Q69.72 30.20 69.72 33.48L69.72 33.48Q69.72 36.84 68.36 39.48Q67 42.12 64.76 43.60Q62.52 45.08 60.04 45.08L60.04 45.08Q57.32 45.08 55.76 43.88Q54.20 42.68 54.20 40.76L54.20 40.76Q54.20 39.80 54.36 39.40L54.36 39.40Q54.44 39.40 54.52 39.44Q54.60 39.48 54.68 39.48L54.68 39.48Q57.32 39.32 58.76 38.08Q60.20 36.84 60.72 35.28Q61.24 33.72 61.24 32.84L61.24 32.84Q61.24 30.44 59.72 28.96Q58.20 27.48 55.48 27.48L55.48 27.48Q52.28 27.48 49.76 29.48Q47.24 31.48 45.44 34.84Q43.64 38.20 42.44 42.24Q41.24 46.28 40.64 50.36Q40.04 54.44 40.04 57.80L40.04 57.80Q40.04 61.40 40.80 64.32Q41.56 67.24 43.48 68.92Q45.40 70.60 48.92 70.60L48.92 70.60Q51.56 70.60 53.60 69.48Q55.64 68.36 57.12 66.56Q58.60 64.76 59.52 62.68Q60.44 60.60 60.76 58.76L60.76 58.76Q62.52 59 63.68 60.72Q64.84 62.44 64.84 64.68L64.84 64.68Q64.84 66.76 63.64 69.08Q62.44 71.40 60.12 73.48Q57.80 75.56 54.48 76.80Q51.16 78.04 47.00 78.04ZM87.32 78.04L87.32 78.04Q79.24 78.04 74.92 73.04Q70.60 68.04 70.60 58.36L70.60 58.36Q70.60 53.48 71.68 48.40Q72.76 43.32 74.96 38.60Q77.16 33.88 80.40 30.12Q83.64 26.36 87.96 24.16Q92.28 21.96 97.72 21.96L97.72 21.96Q101.64 21.96 104.40 23.44Q107.16 24.92 108.60 27.56Q110.04 30.20 110.04 33.48L110.04 33.48Q110.04 36.84 108.68 39.48Q107.32 42.12 105.08 43.60Q102.84 45.08 100.36 45.08L100.36 45.08Q97.64 45.08 96.08 43.88Q94.52 42.68 94.52 40.76L94.52 40.76Q94.52 39.80 94.68 39.40L94.68 39.40Q94.76 39.40 94.84 39.44Q94.92 39.48 95 39.48L95 39.48Q97.64 39.32 99.08 38.08Q100.52 36.84 101.04 35.28Q101.56 33.72 101.56 32.84L101.56 32.84Q101.56 30.44 100.04 28.96Q98.52 27.48 95.80 27.48L95.80 27.48Q92.60 27.48 90.08 29.48Q87.56 31.48 85.76 34.84Q83.96 38.20 82.76 42.24Q81.56 46.28 80.96 50.36Q80.36 54.44 80.36 57.80L80.36 57.80Q80.36 61.40 81.12 64.32Q81.88 67.24 83.80 68.92Q85.72 70.60 89.24 70.60L89.24 70.60Q91.88 70.60 93.92 69.48Q95.96 68.36 97.44 66.56Q98.92 64.76 99.84 62.68Q100.76 60.60 101.08 58.76L101.08 58.76Q102.84 59 104 60.72Q105.16 62.44 105.16 64.68L105.16 64.68Q105.16 66.76 103.96 69.08Q102.76 71.40 100.44 73.48Q98.12 75.56 94.80 76.80Q91.48 78.04 87.32 78.04Z" fill="#fff"></path></svg>